<svg xmlns="http://www.w3.org/2000/svg" width="912" height="770" viewBox="0 0 912 770" font-family="-apple-system,Segoe UI,Helvetica,Arial,sans-serif">
<rect width="912" height="770" fill="#ffffff"/>
<text x="456.0" y="32" text-anchor="middle" font-size="20" font-weight="700" fill="#222">rlx-fft &#8212; precision ladder &amp; hardware scaling (n=256)</text>
<text x="435.0" y="62" text-anchor="middle" font-size="15" font-weight="600" fill="#333">compensated multi-limb FFT reaches the precision of its total bit-width</text>
<line x1="80" y1="360.0" x2="790" y2="360.0" stroke="#eee"/>
<text x="72" y="364.0" text-anchor="end" font-size="11" fill="#666">0</text>
<line x1="80" y1="326.8" x2="790" y2="326.8" stroke="#eee"/>
<text x="72" y="330.8" text-anchor="end" font-size="11" fill="#666">4</text>
<line x1="80" y1="293.6" x2="790" y2="293.6" stroke="#eee"/>
<text x="72" y="297.6" text-anchor="end" font-size="11" fill="#666">8</text>
<line x1="80" y1="260.5" x2="790" y2="260.5" stroke="#eee"/>
<text x="72" y="264.5" text-anchor="end" font-size="11" fill="#666">12</text>
<line x1="80" y1="227.3" x2="790" y2="227.3" stroke="#eee"/>
<text x="72" y="231.3" text-anchor="end" font-size="11" fill="#666">16</text>
<line x1="80" y1="194.1" x2="790" y2="194.1" stroke="#eee"/>
<text x="72" y="198.1" text-anchor="end" font-size="11" fill="#666">20</text>
<line x1="80" y1="160.9" x2="790" y2="160.9" stroke="#eee"/>
<text x="72" y="164.9" text-anchor="end" font-size="11" fill="#666">24</text>
<line x1="80" y1="127.8" x2="790" y2="127.8" stroke="#eee"/>
<text x="72" y="131.8" text-anchor="end" font-size="11" fill="#666">28</text>
<line x1="80" y1="94.6" x2="790" y2="94.6" stroke="#eee"/>
<text x="72" y="98.6" text-anchor="end" font-size="11" fill="#666">32</text>
<text x="80.0" y="378" text-anchor="middle" font-size="11" fill="#666">0</text>
<text x="183.3" y="378" text-anchor="middle" font-size="11" fill="#666">16</text>
<text x="286.5" y="378" text-anchor="middle" font-size="11" fill="#666">32</text>
<text x="389.8" y="378" text-anchor="middle" font-size="11" fill="#666">48</text>
<text x="493.1" y="378" text-anchor="middle" font-size="11" fill="#666">64</text>
<text x="596.4" y="378" text-anchor="middle" font-size="11" fill="#666">80</text>
<text x="699.6" y="378" text-anchor="middle" font-size="11" fill="#666">96</text>
<text x="790.0" y="378" text-anchor="middle" font-size="11" fill="#666">110</text>
<line x1="80" y1="78" x2="80" y2="360" stroke="#999"/>
<line x1="80" y1="360" x2="790" y2="360" stroke="#999"/>
<text x="435.0" y="396" text-anchor="middle" font-size="12" fill="#444">total mantissa bits (base bits &#215; limbs)</text>
<text x="22" y="219.0" text-anchor="middle" font-size="12" fill="#444" transform="rotate(-90 22 219.0)">accurate decimal digits (&#8722;log&#8321;&#8320; err)</text>
<line x1="80.0" y1="360.0" x2="790.0" y2="85.4" stroke="#bbb" stroke-width="1.5" stroke-dasharray="5 4"/>
<text x="441.5" y="212.2" font-size="10.5" fill="#999" transform="rotate(-15 441.5 220.2)">information limit (log&#8321;&#8320;2 &#215; bits)</text>
<circle cx="105.8" cy="354.2" r="5.5" fill="#e15759" stroke="#fff" stroke-width="1"/>
<text x="113.8" y="358.2" text-anchor="start" font-size="10.5" fill="#333">f8 ×1 &#183; 320&#181;s</text>
<circle cx="131.6" cy="345.7" r="5.5" fill="#e15759" stroke="#fff" stroke-width="1"/>
<text x="139.6" y="349.7" text-anchor="start" font-size="10.5" fill="#333">f8 ×2 &#183; 2773&#181;s</text>
<circle cx="151.0" cy="337.2" r="5.5" fill="#f28e2b" stroke="#fff" stroke-width="1"/>
<text x="159.0" y="341.2" text-anchor="start" font-size="10.5" fill="#333">f16 ×1 &#183; 319&#181;s</text>
<circle cx="222.0" cy="327.5" r="5.5" fill="#f28e2b" stroke="#fff" stroke-width="1"/>
<text x="230.0" y="331.5" text-anchor="start" font-size="10.5" fill="#333">f16 ×2 &#183; 3150&#181;s</text>
<circle cx="234.9" cy="304.1" r="5.5" fill="#4e79a7" stroke="#fff" stroke-width="1"/>
<text x="242.9" y="318.1" text-anchor="start" font-size="10.5" fill="#333">f32 ×1 &#183; 939&#181;s</text>
<circle cx="389.8" cy="241.2" r="5.5" fill="#4e79a7" stroke="#fff" stroke-width="1"/>
<text x="399.8" y="255.2" text-anchor="start" font-size="10.5" fill="#333">f32 ×2 &#183; 36&#181;s</text>
<circle cx="544.7" cy="175.5" r="5.5" fill="#4e79a7" stroke="#fff" stroke-width="1"/>
<text x="536.7" y="191.5" text-anchor="end" font-size="10.5" fill="#333">f32 ×3 &#183; 3027&#181;s</text>
<circle cx="699.6" cy="112.1" r="5.5" fill="#4e79a7" stroke="#fff" stroke-width="1"/>
<text x="689.6" y="104.1" text-anchor="end" font-size="10.5" fill="#333">f32 ×4 &#183; 4730&#181;s</text>
<circle cx="422.1" cy="230.1" r="5.5" fill="#59a14f" stroke="#fff" stroke-width="1"/>
<text x="432.1" y="222.1" text-anchor="start" font-size="10.5" fill="#333">f64 ×1 &#183; 11&#181;s</text>
<circle cx="764.2" cy="105.0" r="5.5" fill="#59a14f" stroke="#fff" stroke-width="1"/>
<text x="754.2" y="121.0" text-anchor="end" font-size="10.5" fill="#333">f64 ×2 &#183; 35&#181;s</text>
<circle cx="98" cy="92" r="5" fill="#e15759"/>
<text x="110" y="96" font-size="11" fill="#444">f8 base</text>
<circle cx="98" cy="110" r="5" fill="#f28e2b"/>
<text x="110" y="114" font-size="11" fill="#444">f16 base</text>
<circle cx="98" cy="128" r="5" fill="#4e79a7"/>
<text x="110" y="132" font-size="11" fill="#444">f32 base</text>
<circle cx="98" cy="146" r="5" fill="#59a14f"/>
<text x="110" y="150" font-size="11" fill="#444">f64 base</text>
<text x="435.0" y="462" text-anchor="middle" font-size="15" font-weight="600" fill="#333">native f32 throughput: GPU overtakes CPU once the batch amortizes launch</text>
<line x1="80" y1="674.8" x2="790" y2="674.8" stroke="#eee"/>
<text x="72" y="678.8" text-anchor="end" font-size="11" fill="#666">0.1 ms</text>
<line x1="80" y1="621.6" x2="790" y2="621.6" stroke="#eee"/>
<text x="72" y="625.6" text-anchor="end" font-size="11" fill="#666">1 ms</text>
<line x1="80" y1="568.4" x2="790" y2="568.4" stroke="#eee"/>
<text x="72" y="572.4" text-anchor="end" font-size="11" fill="#666">10 ms</text>
<line x1="80" y1="515.2" x2="790" y2="515.2" stroke="#eee"/>
<text x="72" y="519.2" text-anchor="end" font-size="11" fill="#666">100 ms</text>
<line x1="80.0" y1="478" x2="80.0" y2="712" stroke="#f4f4f4"/>
<text x="80.0" y="730" text-anchor="middle" font-size="11" fill="#666">32</text>
<line x1="375.8" y1="478" x2="375.8" y2="712" stroke="#f4f4f4"/>
<text x="375.8" y="730" text-anchor="middle" font-size="11" fill="#666">1k</text>
<line x1="553.3" y1="478" x2="553.3" y2="712" stroke="#f4f4f4"/>
<text x="553.3" y="730" text-anchor="middle" font-size="11" fill="#666">8k</text>
<line x1="671.7" y1="478" x2="671.7" y2="712" stroke="#f4f4f4"/>
<text x="671.7" y="730" text-anchor="middle" font-size="11" fill="#666">32k</text>
<line x1="790.0" y1="478" x2="790.0" y2="712" stroke="#f4f4f4"/>
<text x="790.0" y="730" text-anchor="middle" font-size="11" fill="#666">128k</text>
<text x="435.0" y="746" text-anchor="middle" font-size="11" fill="#666">batch</text>
<line x1="730.8" y1="478" x2="730.8" y2="712" stroke="#b07aa1" stroke-width="1.2" stroke-dasharray="3 3" opacity="0.7"/>
<text x="725.8" y="492.0" text-anchor="end" font-size="10" fill="#b07aa1">wgpu cap 65535</text>
<line x1="80" y1="478" x2="80" y2="712" stroke="#999"/>
<line x1="80" y1="712" x2="790" y2="712" stroke="#999"/>
<text x="22" y="595.0" text-anchor="middle" font-size="12" fill="#444" transform="rotate(-90 22 595.0)">ms / iter (log, lower is faster)</text>
<polyline points="80.0,679.9 375.8,601.0 553.3,551.1 671.7,518.7 730.8,501.9 790.0,486.4" fill="none" stroke="#4e79a7" stroke-width="2.2"/>
<circle cx="80.0" cy="679.9" r="4" fill="#4e79a7"/>
<circle cx="375.8" cy="601.0" r="4" fill="#4e79a7"/>
<circle cx="553.3" cy="551.1" r="4" fill="#4e79a7"/>
<circle cx="671.7" cy="518.7" r="4" fill="#4e79a7"/>
<circle cx="730.8" cy="501.9" r="4" fill="#4e79a7"/>
<circle cx="790.0" cy="486.4" r="4" fill="#4e79a7"/>
<text x="796.0" y="490.4" font-size="11" fill="#4e79a7" font-weight="600">CPU rlx</text>
<polyline points="375.8,631.0 553.3,597.4 671.7,571.9 730.8,564.6 790.0,551.7" fill="none" stroke="#59a14f" stroke-width="2.2"/>
<circle cx="375.8" cy="631.0" r="4" fill="#59a14f"/>
<circle cx="553.3" cy="597.4" r="4" fill="#59a14f"/>
<circle cx="671.7" cy="571.9" r="4" fill="#59a14f"/>
<circle cx="730.8" cy="564.6" r="4" fill="#59a14f"/>
<circle cx="790.0" cy="551.7" r="4" fill="#59a14f"/>
<text x="796.0" y="555.7" font-size="11" fill="#59a14f" font-weight="600">Metal rlx</text>
<polyline points="80.0,607.1 375.8,599.6 553.3,566.1 671.7,543.4" fill="none" stroke="#b07aa1" stroke-width="2.2"/>
<circle cx="80.0" cy="607.1" r="4" fill="#b07aa1"/>
<circle cx="375.8" cy="599.6" r="4" fill="#b07aa1"/>
<circle cx="553.3" cy="566.1" r="4" fill="#b07aa1"/>
<circle cx="671.7" cy="543.4" r="4" fill="#b07aa1"/>
<text x="677.7" y="547.4" font-size="11" fill="#b07aa1" font-weight="600">wgpu rlx</text>
<polyline points="80.0,702.6 375.8,631.4 553.3,582.9 671.7,549.9 730.8,533.4 790.0,517.9" fill="none" stroke="#79706e" stroke-width="2.2" stroke-dasharray="6 3"/>
<circle cx="80.0" cy="702.6" r="4" fill="#79706e"/>
<circle cx="375.8" cy="631.4" r="4" fill="#79706e"/>
<circle cx="553.3" cy="582.9" r="4" fill="#79706e"/>
<circle cx="671.7" cy="549.9" r="4" fill="#79706e"/>
<circle cx="730.8" cy="533.4" r="4" fill="#79706e"/>
<circle cx="790.0" cy="517.9" r="4" fill="#79706e"/>
<text x="796.0" y="521.9" font-size="11" fill="#79706e" font-weight="600">rustfft</text>
<text x="553.3" y="585.4" text-anchor="end" font-size="10" fill="#59a14f">beats rustfft &#64; 8k</text>
</svg>